<?xml version="1.0" encoding="UTF-8"?>
<svg xmlns="http://www.w3.org/2000/svg" xmlns:xlink="http://www.w3.org/1999/xlink" width="3323.33" height="2412" viewBox="0 0 3323.33 2412">
<defs>
<clipPath id="clip-0">
<path clip-rule="nonzero" d="M 0 0 L 3323.328125 0 L 3323.328125 2412 L 0 2412 Z M 0 0 "/>
</clipPath>
<clipPath id="clip-1">
<path clip-rule="nonzero" d="M 855 84 L 2702 84 L 2702 1930 L 855 1930 Z M 855 84 "/>
</clipPath>
<clipPath id="clip-2">
<path clip-rule="nonzero" d="M 2700.980469 979.03125 C 2716.300781 1488.429688 2315.769531 1913.800781 1806.371094 1929.109375 C 1296.980469 1944.429688 871.609375 1543.898438 856.289062 1034.511719 C 840.972656 525.109375 1241.5 99.738281 1750.898438 84.429688 C 2260.289062 69.109375 2685.660156 469.628906 2700.980469 979.03125 Z M 2700.980469 979.03125 "/>
</clipPath>
<clipPath id="clip-3">
<path clip-rule="nonzero" d="M 2700.980469 979.03125 C 2716.300781 1488.429688 2315.769531 1913.800781 1806.371094 1929.109375 C 1296.980469 1944.429688 871.609375 1543.898438 856.289062 1034.511719 C 840.972656 525.109375 1241.5 99.738281 1750.898438 84.429688 C 2260.289062 69.109375 2685.660156 469.628906 2700.980469 979.03125 "/>
</clipPath>
<linearGradient id="linear-pattern-0" gradientUnits="userSpaceOnUse" x1="-0.159113" y1="0" x2="1.249388" y2="0" gradientTransform="matrix(-1020.95, 1537.59, -1537.59, -1020.95, 2335.19, 168.57)">
<stop offset="0" stop-color="rgb(52.940369%, 49.803162%, 65.881348%)" stop-opacity="1"/>
<stop offset="0.0625" stop-color="rgb(52.940369%, 49.803162%, 65.881348%)" stop-opacity="1"/>
<stop offset="0.09375" stop-color="rgb(52.940369%, 49.803162%, 65.881348%)" stop-opacity="1"/>
<stop offset="0.109375" stop-color="rgb(52.940369%, 49.803162%, 65.881348%)" stop-opacity="1"/>
<stop offset="0.117188" stop-color="rgb(53.059387%, 49.81842%, 65.87677%)" stop-opacity="1"/>
<stop offset="0.121094" stop-color="rgb(53.462219%, 49.8703%, 65.861511%)" stop-opacity="1"/>
<stop offset="0.125" stop-color="rgb(53.744507%, 49.906921%, 65.852356%)" stop-opacity="1"/>
<stop offset="0.128906" stop-color="rgb(54.058838%, 49.94812%, 65.840149%)" stop-opacity="1"/>
<stop offset="0.132812" stop-color="rgb(54.374695%, 49.989319%, 65.827942%)" stop-opacity="1"/>
<stop offset="0.136719" stop-color="rgb(54.710388%, 50.032043%, 65.815735%)" stop-opacity="1"/>
<stop offset="0.140625" stop-color="rgb(55.047607%, 50.076294%, 65.803528%)" stop-opacity="1"/>
<stop offset="0.144531" stop-color="rgb(55.39856%, 50.12207%, 65.789795%)" stop-opacity="1"/>
<stop offset="0.148438" stop-color="rgb(55.749512%, 50.167847%, 65.777588%)" stop-opacity="1"/>
<stop offset="0.152344" stop-color="rgb(56.112671%, 50.213623%, 65.763855%)" stop-opacity="1"/>
<stop offset="0.15625" stop-color="rgb(56.47583%, 50.260925%, 65.750122%)" stop-opacity="1"/>
<stop offset="0.160156" stop-color="rgb(56.84967%, 50.309753%, 65.736389%)" stop-opacity="1"/>
<stop offset="0.164062" stop-color="rgb(57.223511%, 50.358582%, 65.722656%)" stop-opacity="1"/>
<stop offset="0.167969" stop-color="rgb(57.606506%, 50.40741%, 65.708923%)" stop-opacity="1"/>
<stop offset="0.171875" stop-color="rgb(57.991028%, 50.457764%, 65.69519%)" stop-opacity="1"/>
<stop offset="0.175781" stop-color="rgb(58.381653%, 50.508118%, 65.679932%)" stop-opacity="1"/>
<stop offset="0.179688" stop-color="rgb(58.772278%, 50.558472%, 65.666199%)" stop-opacity="1"/>
<stop offset="0.183594" stop-color="rgb(59.170532%, 50.610352%, 65.65094%)" stop-opacity="1"/>
<stop offset="0.1875" stop-color="rgb(59.568787%, 50.662231%, 65.635681%)" stop-opacity="1"/>
<stop offset="0.191406" stop-color="rgb(59.973145%, 50.714111%, 65.620422%)" stop-opacity="1"/>
<stop offset="0.195312" stop-color="rgb(60.379028%, 50.767517%, 65.606689%)" stop-opacity="1"/>
<stop offset="0.199219" stop-color="rgb(60.78949%, 50.820923%, 65.591431%)" stop-opacity="1"/>
<stop offset="0.203125" stop-color="rgb(61.201477%, 50.874329%, 65.576172%)" stop-opacity="1"/>
<stop offset="0.207031" stop-color="rgb(61.618042%, 50.927734%, 65.559387%)" stop-opacity="1"/>
<stop offset="0.210938" stop-color="rgb(62.034607%, 50.982666%, 65.544128%)" stop-opacity="1"/>
<stop offset="0.214844" stop-color="rgb(62.45575%, 51.036072%, 65.52887%)" stop-opacity="1"/>
<stop offset="0.21875" stop-color="rgb(62.878418%, 51.091003%, 65.513611%)" stop-opacity="1"/>
<stop offset="0.222656" stop-color="rgb(63.305664%, 51.145935%, 65.496826%)" stop-opacity="1"/>
<stop offset="0.226563" stop-color="rgb(63.73291%, 51.202393%, 65.481567%)" stop-opacity="1"/>
<stop offset="0.230469" stop-color="rgb(64.163208%, 51.257324%, 65.464783%)" stop-opacity="1"/>
<stop offset="0.234375" stop-color="rgb(64.595032%, 51.313782%, 65.449524%)" stop-opacity="1"/>
<stop offset="0.238281" stop-color="rgb(65.029907%, 51.370239%, 65.432739%)" stop-opacity="1"/>
<stop offset="0.242187" stop-color="rgb(65.466309%, 51.426697%, 65.41748%)" stop-opacity="1"/>
<stop offset="0.246094" stop-color="rgb(65.905762%, 51.483154%, 65.400696%)" stop-opacity="1"/>
<stop offset="0.25" stop-color="rgb(66.346741%, 51.541138%, 65.385437%)" stop-opacity="1"/>
<stop offset="0.253906" stop-color="rgb(66.790771%, 51.597595%, 65.368652%)" stop-opacity="1"/>
<stop offset="0.257812" stop-color="rgb(67.234802%, 51.655579%, 65.351868%)" stop-opacity="1"/>
<stop offset="0.261719" stop-color="rgb(67.681885%, 51.713562%, 65.335083%)" stop-opacity="1"/>
<stop offset="0.265625" stop-color="rgb(68.130493%, 51.771545%, 65.318298%)" stop-opacity="1"/>
<stop offset="0.269531" stop-color="rgb(68.580627%, 51.829529%, 65.301514%)" stop-opacity="1"/>
<stop offset="0.273438" stop-color="rgb(69.032288%, 51.889038%, 65.286255%)" stop-opacity="1"/>
<stop offset="0.277344" stop-color="rgb(69.487%, 51.947021%, 65.267944%)" stop-opacity="1"/>
<stop offset="0.28125" stop-color="rgb(69.941711%, 52.006531%, 65.25116%)" stop-opacity="1"/>
<stop offset="0.285156" stop-color="rgb(70.399475%, 52.06604%, 65.234375%)" stop-opacity="1"/>
<stop offset="0.289062" stop-color="rgb(70.857239%, 52.125549%, 65.21759%)" stop-opacity="1"/>
<stop offset="0.292969" stop-color="rgb(71.318054%, 52.185059%, 65.200806%)" stop-opacity="1"/>
<stop offset="0.296875" stop-color="rgb(71.780396%, 52.246094%, 65.184021%)" stop-opacity="1"/>
<stop offset="0.300781" stop-color="rgb(72.244263%, 52.305603%, 65.16571%)" stop-opacity="1"/>
<stop offset="0.304687" stop-color="rgb(72.70813%, 52.365112%, 65.148926%)" stop-opacity="1"/>
<stop offset="0.308594" stop-color="rgb(73.175049%, 52.426147%, 65.132141%)" stop-opacity="1"/>
<stop offset="0.3125" stop-color="rgb(73.643494%, 52.487183%, 65.115356%)" stop-opacity="1"/>
<stop offset="0.316406" stop-color="rgb(74.043274%, 52.549744%, 65.049744%)" stop-opacity="1"/>
<stop offset="0.320312" stop-color="rgb(74.44458%, 52.612305%, 64.985657%)" stop-opacity="1"/>
<stop offset="0.324219" stop-color="rgb(74.815369%, 52.685547%, 64.859009%)" stop-opacity="1"/>
<stop offset="0.328125" stop-color="rgb(75.186157%, 52.758789%, 64.733887%)" stop-opacity="1"/>
<stop offset="0.332031" stop-color="rgb(75.575256%, 52.835083%, 64.601135%)" stop-opacity="1"/>
<stop offset="0.335937" stop-color="rgb(75.965881%, 52.911377%, 64.46991%)" stop-opacity="1"/>
<stop offset="0.339844" stop-color="rgb(76.367188%, 52.989197%, 64.332581%)" stop-opacity="1"/>
<stop offset="0.34375" stop-color="rgb(76.768494%, 53.068542%, 64.196777%)" stop-opacity="1"/>
<stop offset="0.347656" stop-color="rgb(77.178955%, 53.149414%, 64.057922%)" stop-opacity="1"/>
<stop offset="0.351562" stop-color="rgb(77.589417%, 53.230286%, 63.919067%)" stop-opacity="1"/>
<stop offset="0.355469" stop-color="rgb(78.005981%, 53.311157%, 63.777161%)" stop-opacity="1"/>
<stop offset="0.359375" stop-color="rgb(78.422546%, 53.393555%, 63.63678%)" stop-opacity="1"/>
<stop offset="0.363281" stop-color="rgb(78.843689%, 53.475952%, 63.493347%)" stop-opacity="1"/>
<stop offset="0.367188" stop-color="rgb(79.264832%, 53.559875%, 63.349915%)" stop-opacity="1"/>
<stop offset="0.371094" stop-color="rgb(79.690552%, 53.643799%, 63.204956%)" stop-opacity="1"/>
<stop offset="0.375" stop-color="rgb(80.117798%, 53.727722%, 63.061523%)" stop-opacity="1"/>
<stop offset="0.378906" stop-color="rgb(80.548096%, 53.811646%, 62.915039%)" stop-opacity="1"/>
<stop offset="0.382812" stop-color="rgb(80.979919%, 53.895569%, 62.768555%)" stop-opacity="1"/>
<stop offset="0.386719" stop-color="rgb(81.413269%, 53.981018%, 62.620544%)" stop-opacity="1"/>
<stop offset="0.390625" stop-color="rgb(81.848145%, 54.066467%, 62.47406%)" stop-opacity="1"/>
<stop offset="0.394531" stop-color="rgb(82.284546%, 54.151917%, 62.32605%)" stop-opacity="1"/>
<stop offset="0.398438" stop-color="rgb(82.722473%, 54.238892%, 62.17804%)" stop-opacity="1"/>
<stop offset="0.402344" stop-color="rgb(83.161926%, 54.324341%, 62.028503%)" stop-opacity="1"/>
<stop offset="0.40625" stop-color="rgb(83.602905%, 54.411316%, 61.878967%)" stop-opacity="1"/>
<stop offset="0.410156" stop-color="rgb(84.04541%, 54.498291%, 61.727905%)" stop-opacity="1"/>
<stop offset="0.414063" stop-color="rgb(84.489441%, 54.585266%, 61.578369%)" stop-opacity="1"/>
<stop offset="0.417969" stop-color="rgb(84.934998%, 54.672241%, 61.427307%)" stop-opacity="1"/>
<stop offset="0.421875" stop-color="rgb(85.380554%, 54.760742%, 61.276245%)" stop-opacity="1"/>
<stop offset="0.425781" stop-color="rgb(85.827637%, 54.847717%, 61.123657%)" stop-opacity="1"/>
<stop offset="0.429688" stop-color="rgb(86.276245%, 54.936218%, 60.972595%)" stop-opacity="1"/>
<stop offset="0.433594" stop-color="rgb(86.726379%, 55.024719%, 60.818481%)" stop-opacity="1"/>
<stop offset="0.4375" stop-color="rgb(87.176514%, 55.11322%, 60.665894%)" stop-opacity="1"/>
<stop offset="0.441406" stop-color="rgb(87.628174%, 55.201721%, 60.51178%)" stop-opacity="1"/>
<stop offset="0.445313" stop-color="rgb(88.079834%, 55.290222%, 60.359192%)" stop-opacity="1"/>
<stop offset="0.449219" stop-color="rgb(88.53302%, 55.378723%, 60.205078%)" stop-opacity="1"/>
<stop offset="0.453125" stop-color="rgb(88.987732%, 55.46875%, 60.050964%)" stop-opacity="1"/>
<stop offset="0.457031" stop-color="rgb(89.44397%, 55.558777%, 59.896851%)" stop-opacity="1"/>
<stop offset="0.460938" stop-color="rgb(89.900208%, 55.648804%, 59.742737%)" stop-opacity="1"/>
<stop offset="0.464844" stop-color="rgb(90.357971%, 55.738831%, 59.587097%)" stop-opacity="1"/>
<stop offset="0.46875" stop-color="rgb(90.815735%, 55.828857%, 59.431458%)" stop-opacity="1"/>
<stop offset="0.472656" stop-color="rgb(91.275024%, 55.918884%, 59.275818%)" stop-opacity="1"/>
<stop offset="0.476562" stop-color="rgb(91.734314%, 56.008911%, 59.120178%)" stop-opacity="1"/>
<stop offset="0.480469" stop-color="rgb(92.195129%, 56.098938%, 58.963013%)" stop-opacity="1"/>
<stop offset="0.484375" stop-color="rgb(92.655945%, 56.188965%, 58.807373%)" stop-opacity="1"/>
<stop offset="0.488281" stop-color="rgb(93.118286%, 56.280518%, 58.650208%)" stop-opacity="1"/>
<stop offset="0.492188" stop-color="rgb(93.580627%, 56.37207%, 58.493042%)" stop-opacity="1"/>
<stop offset="0.496094" stop-color="rgb(94.044495%, 56.462097%, 58.335876%)" stop-opacity="1"/>
<stop offset="0.5" stop-color="rgb(94.508362%, 56.55365%, 58.178711%)" stop-opacity="1"/>
<stop offset="0.503906" stop-color="rgb(94.972229%, 56.645203%, 58.02002%)" stop-opacity="1"/>
<stop offset="0.507812" stop-color="rgb(95.437622%, 56.736755%, 57.862854%)" stop-opacity="1"/>
<stop offset="0.511719" stop-color="rgb(95.767212%, 56.948853%, 57.818604%)" stop-opacity="1"/>
<stop offset="0.515625" stop-color="rgb(96.098328%, 57.162476%, 57.775879%)" stop-opacity="1"/>
<stop offset="0.519531" stop-color="rgb(96.131897%, 57.650757%, 57.98645%)" stop-opacity="1"/>
<stop offset="0.523438" stop-color="rgb(96.165466%, 58.139038%, 58.197021%)" stop-opacity="1"/>
<stop offset="0.527344" stop-color="rgb(96.199036%, 58.630371%, 58.409119%)" stop-opacity="1"/>
<stop offset="0.53125" stop-color="rgb(96.232605%, 59.12323%, 58.622742%)" stop-opacity="1"/>
<stop offset="0.535156" stop-color="rgb(96.266174%, 59.617615%, 58.834839%)" stop-opacity="1"/>
<stop offset="0.539062" stop-color="rgb(96.30127%, 60.113525%, 59.048462%)" stop-opacity="1"/>
<stop offset="0.542969" stop-color="rgb(96.334839%, 60.610962%, 59.262085%)" stop-opacity="1"/>
<stop offset="0.546875" stop-color="rgb(96.368408%, 61.108398%, 59.477234%)" stop-opacity="1"/>
<stop offset="0.550781" stop-color="rgb(96.401978%, 61.605835%, 59.692383%)" stop-opacity="1"/>
<stop offset="0.554688" stop-color="rgb(96.437073%, 62.104797%, 59.907532%)" stop-opacity="1"/>
<stop offset="0.558594" stop-color="rgb(96.470642%, 62.60376%, 60.122681%)" stop-opacity="1"/>
<stop offset="0.5625" stop-color="rgb(96.505737%, 63.102722%, 60.33783%)" stop-opacity="1"/>
<stop offset="0.566406" stop-color="rgb(96.539307%, 63.601685%, 60.552979%)" stop-opacity="1"/>
<stop offset="0.570312" stop-color="rgb(96.574402%, 64.102173%, 60.769653%)" stop-opacity="1"/>
<stop offset="0.574219" stop-color="rgb(96.607971%, 64.602661%, 60.984802%)" stop-opacity="1"/>
<stop offset="0.578125" stop-color="rgb(96.643066%, 65.104675%, 61.201477%)" stop-opacity="1"/>
<stop offset="0.582031" stop-color="rgb(96.676636%, 65.605164%, 61.418152%)" stop-opacity="1"/>
<stop offset="0.585938" stop-color="rgb(96.711731%, 66.107178%, 61.634827%)" stop-opacity="1"/>
<stop offset="0.589844" stop-color="rgb(96.7453%, 66.609192%, 61.851501%)" stop-opacity="1"/>
<stop offset="0.59375" stop-color="rgb(96.780396%, 67.111206%, 62.068176%)" stop-opacity="1"/>
<stop offset="0.597656" stop-color="rgb(96.815491%, 67.61322%, 62.284851%)" stop-opacity="1"/>
<stop offset="0.601562" stop-color="rgb(96.850586%, 68.11676%, 62.501526%)" stop-opacity="1"/>
<stop offset="0.605469" stop-color="rgb(96.884155%, 68.6203%, 62.718201%)" stop-opacity="1"/>
<stop offset="0.609375" stop-color="rgb(96.91925%, 69.12384%, 62.936401%)" stop-opacity="1"/>
<stop offset="0.613281" stop-color="rgb(96.95282%, 69.62738%, 63.153076%)" stop-opacity="1"/>
<stop offset="0.617187" stop-color="rgb(96.987915%, 70.13092%, 63.369751%)" stop-opacity="1"/>
<stop offset="0.621094" stop-color="rgb(97.02301%, 70.63446%, 63.586426%)" stop-opacity="1"/>
<stop offset="0.625" stop-color="rgb(97.058105%, 71.139526%, 63.804626%)" stop-opacity="1"/>
<stop offset="0.628906" stop-color="rgb(97.091675%, 71.643066%, 64.022827%)" stop-opacity="1"/>
<stop offset="0.632812" stop-color="rgb(97.12677%, 72.148132%, 64.241028%)" stop-opacity="1"/>
<stop offset="0.636719" stop-color="rgb(97.160339%, 72.653198%, 64.457703%)" stop-opacity="1"/>
<stop offset="0.640625" stop-color="rgb(97.195435%, 73.158264%, 64.675903%)" stop-opacity="1"/>
<stop offset="0.644531" stop-color="rgb(97.23053%, 73.66333%, 64.894104%)" stop-opacity="1"/>
<stop offset="0.648437" stop-color="rgb(97.265625%, 74.168396%, 65.112305%)" stop-opacity="1"/>
<stop offset="0.652344" stop-color="rgb(97.299194%, 74.673462%, 65.328979%)" stop-opacity="1"/>
<stop offset="0.65625" stop-color="rgb(97.33429%, 75.178528%, 65.54718%)" stop-opacity="1"/>
<stop offset="0.660156" stop-color="rgb(97.369385%, 75.683594%, 65.765381%)" stop-opacity="1"/>
<stop offset="0.664062" stop-color="rgb(97.40448%, 76.190186%, 65.983582%)" stop-opacity="1"/>
<stop offset="0.667969" stop-color="rgb(97.438049%, 76.696777%, 66.201782%)" stop-opacity="1"/>
<stop offset="0.671875" stop-color="rgb(97.473145%, 77.203369%, 66.421509%)" stop-opacity="1"/>
<stop offset="0.675781" stop-color="rgb(97.50824%, 77.708435%, 66.639709%)" stop-opacity="1"/>
<stop offset="0.679687" stop-color="rgb(97.543335%, 78.215027%, 66.85791%)" stop-opacity="1"/>
<stop offset="0.683594" stop-color="rgb(97.576904%, 78.721619%, 67.076111%)" stop-opacity="1"/>
<stop offset="0.6875" stop-color="rgb(97.612%, 79.22821%, 67.294312%)" stop-opacity="1"/>
<stop offset="0.691406" stop-color="rgb(97.647095%, 79.734802%, 67.512512%)" stop-opacity="1"/>
<stop offset="0.695312" stop-color="rgb(97.68219%, 80.24292%, 67.732239%)" stop-opacity="1"/>
<stop offset="0.699219" stop-color="rgb(97.717285%, 80.749512%, 67.950439%)" stop-opacity="1"/>
<stop offset="0.703125" stop-color="rgb(97.75238%, 81.256104%, 68.170166%)" stop-opacity="1"/>
<stop offset="0.707031" stop-color="rgb(97.78595%, 81.764221%, 68.388367%)" stop-opacity="1"/>
<stop offset="0.710938" stop-color="rgb(97.821045%, 82.272339%, 68.608093%)" stop-opacity="1"/>
<stop offset="0.714844" stop-color="rgb(97.85614%, 82.778931%, 68.826294%)" stop-opacity="1"/>
<stop offset="0.71875" stop-color="rgb(97.891235%, 83.287048%, 69.046021%)" stop-opacity="1"/>
<stop offset="0.722656" stop-color="rgb(97.926331%, 83.79364%, 69.264221%)" stop-opacity="1"/>
<stop offset="0.726562" stop-color="rgb(97.961426%, 84.301758%, 69.483948%)" stop-opacity="1"/>
<stop offset="0.730469" stop-color="rgb(97.994995%, 84.809875%, 69.702148%)" stop-opacity="1"/>
<stop offset="0.734375" stop-color="rgb(98.03009%, 85.317993%, 69.921875%)" stop-opacity="1"/>
<stop offset="0.738281" stop-color="rgb(98.065186%, 85.826111%, 70.140076%)" stop-opacity="1"/>
<stop offset="0.742188" stop-color="rgb(98.100281%, 86.334229%, 70.359802%)" stop-opacity="1"/>
<stop offset="0.746094" stop-color="rgb(98.135376%, 86.842346%, 70.579529%)" stop-opacity="1"/>
<stop offset="0.75" stop-color="rgb(98.170471%, 87.35199%, 70.799255%)" stop-opacity="1"/>
<stop offset="0.753906" stop-color="rgb(98.204041%, 87.860107%, 71.017456%)" stop-opacity="1"/>
<stop offset="0.757812" stop-color="rgb(98.239136%, 88.368225%, 71.237183%)" stop-opacity="1"/>
<stop offset="0.761719" stop-color="rgb(98.274231%, 88.876343%, 71.456909%)" stop-opacity="1"/>
<stop offset="0.765625" stop-color="rgb(98.309326%, 89.385986%, 71.676636%)" stop-opacity="1"/>
<stop offset="0.769531" stop-color="rgb(98.344421%, 89.894104%, 71.896362%)" stop-opacity="1"/>
<stop offset="0.773437" stop-color="rgb(98.379517%, 90.403748%, 72.116089%)" stop-opacity="1"/>
<stop offset="0.777344" stop-color="rgb(98.414612%, 90.913391%, 72.335815%)" stop-opacity="1"/>
<stop offset="0.78125" stop-color="rgb(98.449707%, 91.423035%, 72.555542%)" stop-opacity="1"/>
<stop offset="0.785156" stop-color="rgb(98.484802%, 91.931152%, 72.775269%)" stop-opacity="1"/>
<stop offset="0.789063" stop-color="rgb(98.519897%, 92.440796%, 72.994995%)" stop-opacity="1"/>
<stop offset="0.792969" stop-color="rgb(98.553467%, 92.950439%, 73.214722%)" stop-opacity="1"/>
<stop offset="0.796875" stop-color="rgb(98.588562%, 93.460083%, 73.434448%)" stop-opacity="1"/>
<stop offset="0.800781" stop-color="rgb(98.623657%, 93.969727%, 73.654175%)" stop-opacity="1"/>
<stop offset="0.804688" stop-color="rgb(98.658752%, 94.47937%, 73.873901%)" stop-opacity="1"/>
<stop offset="0.808594" stop-color="rgb(98.693848%, 94.989014%, 74.093628%)" stop-opacity="1"/>
<stop offset="0.8125" stop-color="rgb(98.728943%, 95.498657%, 74.313354%)" stop-opacity="1"/>
<stop offset="0.816406" stop-color="rgb(98.764038%, 96.008301%, 74.533081%)" stop-opacity="1"/>
<stop offset="0.820313" stop-color="rgb(98.799133%, 96.51947%, 74.752808%)" stop-opacity="1"/>
<stop offset="0.828125" stop-color="rgb(98.809814%, 96.690369%, 74.82605%)" stop-opacity="1"/>
<stop offset="0.84375" stop-color="rgb(98.822021%, 96.861267%, 74.900818%)" stop-opacity="1"/>
<stop offset="0.875" stop-color="rgb(98.822021%, 96.861267%, 74.900818%)" stop-opacity="1"/>
<stop offset="1" stop-color="rgb(98.822021%, 96.861267%, 74.900818%)" stop-opacity="1"/>
</linearGradient>
<clipPath id="clip-4">
<path clip-rule="nonzero" d="M 611 1063 L 2420 1063 L 2420 2159 L 611 2159 Z M 611 1063 "/>
</clipPath>
<clipPath id="clip-5">
<path clip-rule="nonzero" d="M 778.492188 1156.96875 C 725.992188 1282.78125 683.953125 1402.921875 611.34375 1765.359375 L 631.472656 2067.269531 C 637.035156 2114.488281 681.894531 2137.230469 753.78125 2143.128906 C 957.453125 2154.601562 1160.03125 2165.808594 1260.058594 2152.421875 C 1347.988281 2136.820312 1431.191406 2118.558594 1541.839844 2056.429688 L 1543.378906 1960.441406 C 1552.050781 1923.710938 1562.671875 1886.039062 1586.191406 1856.539062 C 1609.710938 1827.03125 1651.820312 1808.71875 1686.179688 1824.308594 C 1716.199219 1837.929688 1731.191406 1872.339844 1735.761719 1904.980469 C 1738.449219 1924.28125 1738.460938 1943.828125 1738.460938 1963.308594 C 1738.449219 1989.730469 1738.449219 2016.148438 1738.449219 2042.558594 L 2165.78125 1931.019531 C 2155.828125 1900.5 2162.988281 1868.511719 2172.078125 1837.71875 C 2178.371094 1816.410156 2185.179688 1794.179688 2200.679688 1778.25 C 2205.621094 1773.171875 2212.640625 1768.601562 2219.398438 1770.730469 C 2252.480469 1773.101562 2247.320312 1913.988281 2247.320312 1913.988281 L 2257.640625 1907.28125 C 2259.289062 1904.390625 2264.441406 1790.589844 2266.140625 1787.730469 C 2268.648438 1783.519531 2271.199219 1779.261719 2274.789062 1775.921875 C 2284.46875 1766.898438 2301.328125 1767.179688 2310.71875 1776.511719 C 2314.128906 1779.910156 2316.53125 1784.191406 2318.621094 1788.539062 C 2332.789062 1818.121094 2331.949219 1852.058594 2329.371094 1881.480469 L 2419.691406 1841.21875 L 2418.140625 1565.640625 L 2384.078125 1355.078125 L 2379.429688 1327.210938 L 1696.660156 1125.941406 L 1638.601562 1140.648438 L 1334.730469 1069.011719 C 1102.699219 1056.089844 854.777344 1055.691406 778.492188 1156.96875 Z M 778.492188 1156.96875 "/>
</clipPath>
<clipPath id="clip-6">
<path clip-rule="nonzero" d="M 778.492188 1156.96875 C 725.992188 1282.78125 683.953125 1402.921875 611.34375 1765.359375 L 631.472656 2067.269531 C 637.035156 2114.488281 681.894531 2137.230469 753.78125 2143.128906 C 957.453125 2154.601562 1160.03125 2165.808594 1260.058594 2152.421875 C 1347.988281 2136.820312 1431.191406 2118.558594 1541.839844 2056.429688 L 1543.378906 1960.441406 C 1552.050781 1923.710938 1562.671875 1886.039062 1586.191406 1856.539062 C 1609.710938 1827.03125 1651.820312 1808.71875 1686.179688 1824.308594 C 1716.199219 1837.929688 1731.191406 1872.339844 1735.761719 1904.980469 C 1738.449219 1924.28125 1738.460938 1943.828125 1738.460938 1963.308594 C 1738.449219 1989.730469 1738.449219 2016.148438 1738.449219 2042.558594 L 2165.78125 1931.019531 C 2155.828125 1900.5 2162.988281 1868.511719 2172.078125 1837.71875 C 2178.371094 1816.410156 2185.179688 1794.179688 2200.679688 1778.25 C 2205.621094 1773.171875 2212.640625 1768.601562 2219.398438 1770.730469 C 2252.480469 1773.101562 2247.320312 1913.988281 2247.320312 1913.988281 L 2257.640625 1907.28125 C 2259.289062 1904.390625 2264.441406 1790.589844 2266.140625 1787.730469 C 2268.648438 1783.519531 2271.199219 1779.261719 2274.789062 1775.921875 C 2284.46875 1766.898438 2301.328125 1767.179688 2310.71875 1776.511719 C 2314.128906 1779.910156 2316.53125 1784.191406 2318.621094 1788.539062 C 2332.789062 1818.121094 2331.949219 1852.058594 2329.371094 1881.480469 L 2419.691406 1841.21875 L 2418.140625 1565.640625 L 2384.078125 1355.078125 L 2379.429688 1327.210938 L 1696.660156 1125.941406 L 1638.601562 1140.648438 L 1334.730469 1069.011719 C 1102.699219 1056.089844 854.777344 1055.691406 778.492188 1156.96875 "/>
</clipPath>
<linearGradient id="linear-pattern-1" gradientUnits="userSpaceOnUse" x1="-0.0646735" y1="0" x2="0.866371" y2="0" gradientTransform="matrix(647.013, 1688.63, -1688.63, 647.013, 1217.42, 948.71)">
<stop offset="0" stop-color="rgb(89.4104%, 45.489502%, 0%)" stop-opacity="1"/>
<stop offset="0.0625" stop-color="rgb(89.4104%, 45.489502%, 0%)" stop-opacity="1"/>
<stop offset="0.09375" stop-color="rgb(89.466858%, 45.635986%, 0.143433%)" stop-opacity="1"/>
<stop offset="0.109375" stop-color="rgb(89.567566%, 45.896912%, 0.39978%)" stop-opacity="1"/>
<stop offset="0.125" stop-color="rgb(89.657593%, 46.133423%, 0.631714%)" stop-opacity="1"/>
<stop offset="0.140625" stop-color="rgb(89.753723%, 46.382141%, 0.875854%)" stop-opacity="1"/>
<stop offset="0.15625" stop-color="rgb(89.852905%, 46.640015%, 1.130676%)" stop-opacity="1"/>
<stop offset="0.171875" stop-color="rgb(89.955139%, 46.907043%, 1.393127%)" stop-opacity="1"/>
<stop offset="0.1875" stop-color="rgb(90.058899%, 47.181702%, 1.661682%)" stop-opacity="1"/>
<stop offset="0.203125" stop-color="rgb(90.16571%, 47.460938%, 1.937866%)" stop-opacity="1"/>
<stop offset="0.21875" stop-color="rgb(90.275574%, 47.746277%, 2.218628%)" stop-opacity="1"/>
<stop offset="0.234375" stop-color="rgb(90.386963%, 48.03772%, 2.503967%)" stop-opacity="1"/>
<stop offset="0.25" stop-color="rgb(90.499878%, 48.332214%, 2.79541%)" stop-opacity="1"/>
<stop offset="0.265625" stop-color="rgb(90.615845%, 48.631287%, 3.089905%)" stop-opacity="1"/>
<stop offset="0.28125" stop-color="rgb(90.731812%, 48.934937%, 3.387451%)" stop-opacity="1"/>
<stop offset="0.296875" stop-color="rgb(90.849304%, 49.241638%, 3.689575%)" stop-opacity="1"/>
<stop offset="0.3125" stop-color="rgb(90.968323%, 49.552917%, 3.994751%)" stop-opacity="1"/>
<stop offset="0.328125" stop-color="rgb(91.088867%, 49.865723%, 4.302979%)" stop-opacity="1"/>
<stop offset="0.34375" stop-color="rgb(91.210938%, 50.183105%, 4.614258%)" stop-opacity="1"/>
<stop offset="0.359375" stop-color="rgb(91.333008%, 50.50354%, 4.928589%)" stop-opacity="1"/>
<stop offset="0.375" stop-color="rgb(91.456604%, 50.8255%, 5.245972%)" stop-opacity="1"/>
<stop offset="0.390625" stop-color="rgb(91.581726%, 51.150513%, 5.566406%)" stop-opacity="1"/>
<stop offset="0.40625" stop-color="rgb(91.706848%, 51.478577%, 5.888367%)" stop-opacity="1"/>
<stop offset="0.421875" stop-color="rgb(91.833496%, 51.808167%, 6.213379%)" stop-opacity="1"/>
<stop offset="0.4375" stop-color="rgb(91.960144%, 52.140808%, 6.539917%)" stop-opacity="1"/>
<stop offset="0.453125" stop-color="rgb(92.088318%, 52.476501%, 6.869507%)" stop-opacity="1"/>
<stop offset="0.46875" stop-color="rgb(92.218018%, 52.812195%, 7.200623%)" stop-opacity="1"/>
<stop offset="0.484375" stop-color="rgb(92.347717%, 53.15094%, 7.533264%)" stop-opacity="1"/>
<stop offset="0.5" stop-color="rgb(92.478943%, 53.492737%, 7.868958%)" stop-opacity="1"/>
<stop offset="0.515625" stop-color="rgb(92.610168%, 53.83606%, 8.206177%)" stop-opacity="1"/>
<stop offset="0.53125" stop-color="rgb(92.741394%, 54.180908%, 8.544922%)" stop-opacity="1"/>
<stop offset="0.546875" stop-color="rgb(92.875671%, 54.527283%, 8.886719%)" stop-opacity="1"/>
<stop offset="0.5625" stop-color="rgb(93.009949%, 54.876709%, 9.230042%)" stop-opacity="1"/>
<stop offset="0.578125" stop-color="rgb(93.144226%, 55.227661%, 9.57489%)" stop-opacity="1"/>
<stop offset="0.59375" stop-color="rgb(93.278503%, 55.578613%, 9.921265%)" stop-opacity="1"/>
<stop offset="0.609375" stop-color="rgb(93.414307%, 55.932617%, 10.269165%)" stop-opacity="1"/>
<stop offset="0.625" stop-color="rgb(93.55011%, 56.288147%, 10.618591%)" stop-opacity="1"/>
<stop offset="0.640625" stop-color="rgb(93.687439%, 56.645203%, 10.969543%)" stop-opacity="1"/>
<stop offset="0.65625" stop-color="rgb(93.824768%, 57.003784%, 11.322021%)" stop-opacity="1"/>
<stop offset="0.671875" stop-color="rgb(93.962097%, 57.363892%, 11.676025%)" stop-opacity="1"/>
<stop offset="0.6875" stop-color="rgb(94.100952%, 57.725525%, 12.031555%)" stop-opacity="1"/>
<stop offset="0.703125" stop-color="rgb(94.239807%, 58.088684%, 12.388611%)" stop-opacity="1"/>
<stop offset="0.71875" stop-color="rgb(94.380188%, 58.453369%, 12.747192%)" stop-opacity="1"/>
<stop offset="0.734375" stop-color="rgb(94.520569%, 58.81958%, 13.1073%)" stop-opacity="1"/>
<stop offset="0.75" stop-color="rgb(94.66095%, 59.185791%, 13.467407%)" stop-opacity="1"/>
<stop offset="0.765625" stop-color="rgb(94.802856%, 59.555054%, 13.830566%)" stop-opacity="1"/>
<stop offset="0.78125" stop-color="rgb(94.943237%, 59.924316%, 14.193726%)" stop-opacity="1"/>
<stop offset="0.796875" stop-color="rgb(95.08667%, 60.296631%, 14.558411%)" stop-opacity="1"/>
<stop offset="0.8125" stop-color="rgb(95.230103%, 60.668945%, 14.924622%)" stop-opacity="1"/>
<stop offset="0.828125" stop-color="rgb(95.373535%, 61.04126%, 15.292358%)" stop-opacity="1"/>
<stop offset="0.84375" stop-color="rgb(95.516968%, 61.416626%, 15.661621%)" stop-opacity="1"/>
<stop offset="0.859375" stop-color="rgb(95.6604%, 61.791992%, 16.030884%)" stop-opacity="1"/>
<stop offset="0.875" stop-color="rgb(95.805359%, 62.17041%, 16.401672%)" stop-opacity="1"/>
<stop offset="0.890625" stop-color="rgb(95.950317%, 62.548828%, 16.773987%)" stop-opacity="1"/>
<stop offset="0.90625" stop-color="rgb(96.095276%, 62.927246%, 17.146301%)" stop-opacity="1"/>
<stop offset="0.921875" stop-color="rgb(96.24176%, 63.308716%, 17.521667%)" stop-opacity="1"/>
<stop offset="0.9375" stop-color="rgb(96.388245%, 63.690186%, 17.897034%)" stop-opacity="1"/>
<stop offset="0.953125" stop-color="rgb(96.534729%, 64.073181%, 18.273926%)" stop-opacity="1"/>
<stop offset="0.96875" stop-color="rgb(96.681213%, 64.457703%, 18.650818%)" stop-opacity="1"/>
<stop offset="0.984375" stop-color="rgb(96.829224%, 64.842224%, 19.029236%)" stop-opacity="1"/>
<stop offset="1" stop-color="rgb(96.977234%, 65.228271%, 19.40918%)" stop-opacity="1"/>
</linearGradient>
</defs>
<g clip-path="url(#clip-0)">
<path fill-rule="nonzero" fill="rgb(98.826599%, 98.826599%, 98.826599%)" fill-opacity="1" d="M 3323.328125 2412 L 0 2412 L 0 0 L 3323.328125 0 L 3323.328125 2412 "/>
</g>
<g clip-path="url(#clip-1)">
<g clip-path="url(#clip-2)">
<g clip-path="url(#clip-3)">
<path fill-rule="nonzero" fill="url(#linear-pattern-0)" d="M 3580.488281 642.925781 L 1414.789062 -795.085938 L -23.21875 1370.613281 L 2142.480469 2808.625 Z M 3580.488281 642.925781 "/>
</g>
</g>
</g>
<path fill-rule="nonzero" fill="rgb(0%, 0%, 0%)" fill-opacity="1" d="M 876.09375 2146.230469 L 699.59375 2211.25 L 1558.871094 2211.25 L 2394.921875 1927.921875 L 2376.339844 1862.898438 L 876.09375 2146.230469 "/>
<path fill-rule="nonzero" fill="rgb(0%, 0%, 0%)" fill-opacity="1" d="M 2331.949219 1845.171875 C 2331.949219 1875.871094 2323.570312 1913.46875 2308.871094 1931.410156 C 2297.679688 1945.070312 2281.761719 1947.019531 2269.328125 1947.019531 C 2240.578125 1947.019531 2227.828125 1899.230469 2227.828125 1845.171875 C 2227.828125 1791.121094 2251.140625 1747.300781 2279.890625 1747.300781 C 2308.640625 1747.300781 2331.949219 1791.121094 2331.949219 1845.171875 "/>
<path fill-rule="nonzero" fill="rgb(72.851562%, 72.459412%, 72.459412%)" fill-opacity="1" d="M 2320.480469 1858.398438 C 2320.480469 1886.429688 2311.648438 1909.160156 2300.769531 1909.160156 C 2289.878906 1909.160156 2281.050781 1886.429688 2281.050781 1858.398438 C 2281.050781 1830.359375 2289.878906 1807.628906 2300.769531 1807.628906 C 2311.648438 1807.628906 2320.480469 1830.359375 2320.480469 1858.398438 "/>
<path fill-rule="nonzero" fill="rgb(94.921875%, 94.921875%, 94.921875%)" fill-opacity="1" d="M 2320.480469 1858.890625 C 2320.480469 1881.601562 2314.910156 1900 2308.03125 1900 C 2301.160156 1900 2295.578125 1881.601562 2295.578125 1858.890625 C 2295.578125 1836.191406 2301.160156 1817.78125 2308.03125 1817.78125 C 2314.910156 1817.78125 2320.480469 1836.191406 2320.480469 1858.890625 "/>
<path fill-rule="nonzero" fill="rgb(31.762695%, 31.37207%, 31.37207%)" fill-opacity="1" d="M 2292.429688 1783.828125 C 2261.558594 1797.589844 2260.128906 1928.128906 2289.421875 1938.21875 C 2262.050781 1919.679688 2263.5 1796.339844 2294.101562 1785.109375 L 2292.429688 1783.828125 "/>
<path fill-rule="nonzero" fill="rgb(0%, 0%, 0%)" fill-opacity="1" d="M 2254.03125 1857.621094 C 2254.03125 1891.410156 2242.820312 1932.789062 2223.140625 1952.550781 C 2208.171875 1967.578125 2186.859375 1969.730469 2170.230469 1969.730469 C 2131.75 1969.730469 2114.679688 1917.121094 2114.679688 1857.621094 C 2114.679688 1798.121094 2145.878906 1749.878906 2184.359375 1749.878906 C 2222.839844 1749.878906 2254.03125 1798.121094 2254.03125 1857.621094 "/>
<path fill-rule="nonzero" fill="rgb(72.851562%, 72.459412%, 72.459412%)" fill-opacity="1" d="M 2238.679688 1872.171875 C 2238.679688 1903.03125 2226.871094 1928.050781 2212.289062 1928.050781 C 2197.71875 1928.050781 2185.910156 1903.03125 2185.910156 1872.171875 C 2185.910156 1841.308594 2197.71875 1816.289062 2212.289062 1816.289062 C 2226.871094 1816.289062 2238.679688 1841.308594 2238.679688 1872.171875 "/>
<path fill-rule="nonzero" fill="rgb(94.921875%, 94.921875%, 94.921875%)" fill-opacity="1" d="M 2238.679688 1872.71875 C 2238.679688 1897.710938 2231.21875 1917.96875 2222.019531 1917.96875 C 2212.820312 1917.96875 2205.359375 1897.710938 2205.359375 1872.71875 C 2205.359375 1847.730469 2212.820312 1827.460938 2222.019531 1827.460938 C 2231.21875 1827.460938 2238.679688 1847.730469 2238.679688 1872.71875 "/>
<path fill-rule="nonzero" fill="rgb(31.762695%, 31.37207%, 31.37207%)" fill-opacity="1" d="M 2201.128906 1790.089844 C 2159.820312 1805.238281 2157.921875 1948.929688 2197.101562 1960.039062 C 2160.480469 1939.628906 2162.421875 1803.871094 2203.371094 1791.5 L 2201.128906 1790.089844 "/>
<path fill-rule="nonzero" fill="rgb(0%, 0%, 0%)" fill-opacity="1" d="M 1745.429688 1952.878906 C 1745.429688 2009.980469 1722.070312 2079.929688 1681.078125 2113.320312 C 1649.890625 2138.730469 1605.5 2142.359375 1570.859375 2142.359375 C 1490.691406 2142.359375 1455.128906 2053.449219 1455.128906 1952.878906 C 1455.128906 1852.308594 1520.121094 1770.78125 1600.28125 1770.78125 C 1680.441406 1770.78125 1745.429688 1852.308594 1745.429688 1952.878906 "/>
<path fill-rule="nonzero" fill="rgb(89.451599%, 45.483398%, 0%)" fill-opacity="1" d="M 746.011719 1289.898438 C 720.53125 1294.390625 694.214844 1294.078125 668.84375 1288.988281 L 583.476562 1356.640625 L 585.023438 1540.878906 L 633.019531 1537.78125 L 645.40625 1379.859375 L 628.375 1365.929688 L 663.984375 1333.421875 L 729.011719 1328.769531 L 735.203125 1331.871094 L 746.011719 1289.898438 "/>
<g clip-path="url(#clip-4)">
<g clip-path="url(#clip-5)">
<g clip-path="url(#clip-6)">
<path fill-rule="nonzero" fill="url(#linear-pattern-1)" d="M 2188.191406 451.507812 L 240.445312 1197.804688 L 842.84375 2769.992188 L 2790.589844 2023.695312 Z M 2188.191406 451.507812 "/>
</g>
</g>
</g>
<path fill-rule="nonzero" fill="rgb(69.726562%, 34.910583%, 8.616638%)" fill-opacity="1" d="M 1325.859375 1773.101562 L 1433.460938 1774.648438 L 1493.839844 1746.78125 L 1496.941406 1961.988281 L 1520.160156 1684.851562 C 1532.660156 1595.648438 1571.988281 1556.160156 1617.699219 1528.480469 L 2105.390625 1543.960938 L 2407.300781 1545.511719 L 1600.671875 1483.578125 L 1538.738281 1506.800781 L 1492.289062 1691.039062 L 1322.761719 1750.171875 L 1325.859375 1773.101562 "/>
<path fill-rule="nonzero" fill="rgb(69.726562%, 34.910583%, 8.616638%)" fill-opacity="1" d="M 1083.238281 1941.109375 C 1091.128906 1938.371094 1095.941406 1936.699219 1095.941406 1936.699219 L 1103.691406 1918.121094 C 974.601562 1942.359375 856.066406 1949.109375 753.78125 1928.960938 L 710.433594 1850 L 668.628906 1831.421875 L 658.566406 1807.421875 C 806.421875 1850 1054.839844 1849.71875 1283.28125 1777.230469 L 1357.601562 1083.621094 C 1094.921875 1057.441406 881.691406 1066.738281 784.746094 1159.480469 L 729.011719 1292.628906 L 715.078125 1300.371094 L 713.527344 1306.570312 L 685.660156 1382.429688 L 699.59375 1383.980469 L 615.988281 1769.488281 L 626.828125 1922.761719 C 708.664062 1962.628906 821.253906 1980.570312 948.859375 1987.789062 C 974.738281 1978.800781 1000.621094 1969.808594 1026.488281 1960.820312 C 1043.53125 1954.910156 1060.480469 1948.320312 1077.71875 1943.03125 C 1091.109375 1938.921875 1108.039062 1951.128906 1120.71875 1956.828125 L 1287.148438 1904.960938 L 1291.800781 1906.511719 L 1294.121094 2059.011719 L 1308.050781 1942.121094 L 1308.050781 1797.359375 L 1068.078125 1928.179688 L 1083.238281 1941.109375 "/>
<path fill-rule="nonzero" fill="rgb(44.700623%, 43.530273%, 42.747498%)" fill-opacity="1" d="M 730.558594 1921.730469 L 783.199219 1937.210938 L 982.921875 1935.671875 L 1102.140625 1907.800781 L 1089.75 1927.148438 L 989.113281 1958.890625 C 913.035156 1973.53125 837.167969 1975.898438 783.199219 1955.789062 L 735.203125 1933.628906 L 730.558594 1921.730469 "/>
<path fill-rule="nonzero" fill="rgb(4.315186%, 6.665039%, 5.099487%)" fill-opacity="1" d="M 1086.648438 1928.699219 C 1120.910156 1843.730469 1188.539062 1795.28125 1288.699219 1782.390625 L 1287.929688 1889.21875 L 1124.589844 1939.539062 L 1086.648438 1928.699219 "/>
<path fill-rule="nonzero" fill="rgb(0%, 2.745056%, 0.784302%)" fill-opacity="1" d="M 1364.558594 1090.328125 C 1309.988281 1254.089844 1301.808594 1719.230469 1308.050781 2115.261719 C 1287.929688 1725.109375 1307.601562 1228.300781 1351.398438 1090.328125 L 1364.558594 1090.328125 "/>
<path fill-rule="nonzero" fill="rgb(0.784302%, 10.984802%, 17.651367%)" fill-opacity="1" d="M 2405.75 1544.738281 L 1612.28125 1502.929688 C 1537.660156 1517.820312 1510.898438 1609.5 1496.160156 1720.460938 C 1435.011719 1766.511719 1396.558594 1767.941406 1327.410156 1765.359375 C 1304.039062 1773.289062 1321.53125 1223.789062 1365.339844 1118.96875 L 2373.628906 1351.75 L 2405.75 1544.738281 "/>
<path fill-rule="nonzero" fill="rgb(0.784302%, 4.704285%, 1.960754%)" fill-opacity="1" d="M 622.699219 1828.320312 L 625.796875 1901.601562 L 676.886719 1928.960938 L 741.398438 1935.671875 C 717.011719 1873.898438 684.765625 1825.589844 622.699219 1828.320312 "/>
<path fill-rule="nonzero" fill="rgb(74.804688%, 91.014099%, 96.875%)" fill-opacity="1" d="M 1373.460938 1125.941406 C 1330.039062 1350.550781 1313.488281 1564.851562 1330.5 1751.429688 C 1378.648438 1765.359375 1425.050781 1751.808594 1491.03125 1709.621094 C 1501.96875 1588.691406 1524.46875 1510.578125 1611.660156 1488.230469 L 2395.261719 1530.988281 L 2367.46875 1355.078125 L 1373.460938 1125.941406 "/>
<path fill-rule="nonzero" fill="rgb(0.784302%, 10.984802%, 17.651367%)" fill-opacity="1" d="M 795.042969 1163.75 C 706.613281 1309.578125 654.871094 1562.398438 615.984375 1772.011719 C 737.992188 1813.5 987.875 1805.160156 1291.148438 1770.46875 C 1285.75 1553.949219 1296.789062 1315.480469 1332.351562 1109.5 C 1121.691406 1089.378906 870.3125 1085.429688 795.042969 1163.75 "/>
<path fill-rule="nonzero" fill="rgb(69.726562%, 34.910583%, 8.616638%)" fill-opacity="1" d="M 1284.828125 2056.429688 L 1544.929688 1989.851562 L 1543.378906 2057.980469 L 1422.621094 2115.261719 L 1287.929688 2153.96875 L 1126.910156 2161.710938 L 1207.421875 2150.871094 L 1281.730469 2101.328125 L 1284.828125 2056.429688 "/>
<path fill-rule="nonzero" fill="rgb(66.992188%, 80.46875%, 86.71875%)" fill-opacity="1" d="M 797.726562 1170.839844 C 711.125 1316.671875 669.554688 1544.910156 631.472656 1754.519531 C 750.957031 1796.011719 986.570312 1787.660156 1283.570312 1752.96875 C 1278.28125 1536.449219 1289.101562 1324.171875 1323.921875 1118.199219 C 1117.621094 1098.070312 871.4375 1092.511719 797.726562 1170.839844 "/>
<path fill-rule="nonzero" fill="rgb(66.992188%, 80.46875%, 86.71875%)" fill-opacity="1" d="M 1266.128906 1214.5 C 1216.121094 1217.949219 1166.101562 1221.390625 1116.078125 1224.828125 C 1110.679688 1225.199219 1105.078125 1225.628906 1100.339844 1228.25 C 1095.210938 1231.101562 1091.738281 1236.171875 1088.550781 1241.089844 C 1065.890625 1276 1046.789062 1313.210938 1031.621094 1351.96875 C 1018.230469 1386.179688 1006.261719 1423.910156 976.578125 1445.558594 C 959.804688 1457.800781 939.15625 1463.378906 918.804688 1467.5 C 892.78125 1472.75 866.355469 1476.019531 839.835938 1477.269531 C 810.734375 1478.628906 778.855469 1478.46875 756.398438 1497.039062 C 739.753906 1510.800781 731.847656 1532.171875 719.828125 1550.121094 C 707.808594 1568.058594 686.691406 1584.070312 666.105469 1577.519531 L 626.828125 1754.519531 C 748.351562 1789.890625 952.675781 1794.28125 1283.28125 1751.429688 C 1274.480469 1548.648438 1275.980469 1360.308594 1306.5 1212.640625 L 1266.128906 1214.5 "/>
<path fill-rule="nonzero" fill="rgb(32.542419%, 36.083984%, 37.646484%)" fill-opacity="1" d="M 960.8125 1630.820312 C 966.847656 1619.609375 963.65625 1605.96875 962.042969 1593.339844 C 960.429688 1580.710938 961.871094 1565.421875 972.882812 1559.039062 C 977.898438 1556.128906 983.933594 1555.738281 989.71875 1555.421875 C 1016.398438 1553.960938 1043.078125 1552.5 1069.761719 1551.039062 C 1074.511719 1550.78125 1079.75 1550.679688 1083.410156 1553.71875 C 1086.671875 1556.429688 1087.738281 1560.898438 1088.570312 1565.070312 C 1095.949219 1602.171875 1098.878906 1640.160156 1097.28125 1677.960938 C 1054.460938 1675.949219 1010.339844 1679.101562 967.75 1675.230469 C 912.5 1670.210938 944.578125 1661 960.8125 1630.820312 "/>
<path fill-rule="nonzero" fill="rgb(53.318787%, 63.084412%, 66.601562%)" fill-opacity="1" d="M 626.828125 1760.710938 L 736.753906 1674.011719 C 898.753906 1654.109375 1084.320312 1654.359375 1281.730469 1664.71875 L 1281.730469 1757.621094 C 985.523438 1793.628906 776.882812 1802.730469 626.828125 1760.710938 "/>
<path fill-rule="nonzero" fill="rgb(66.992188%, 80.46875%, 86.71875%)" fill-opacity="1" d="M 1357.769531 1230.089844 C 1373.230469 1227.929688 1389.609375 1234.570312 1399.199219 1246.878906 C 1414.511719 1266.511719 1411.351562 1295.398438 1424.359375 1316.621094 C 1441.578125 1344.679688 1479.609375 1349.730469 1512.5 1351.03125 C 1525.980469 1351.558594 1539.480469 1351.960938 1552.96875 1352.21875 C 1559.070312 1352.339844 1565.429688 1352.371094 1570.878906 1349.648438 C 1578.128906 1346.03125 1582.289062 1338.339844 1585.609375 1330.949219 C 1600.898438 1296.949219 1608.089844 1259.351562 1606.421875 1222.109375 C 1609.128906 1255.160156 1621.921875 1286.429688 1634.550781 1317.089844 C 1638.328125 1326.238281 1642.371094 1335.769531 1649.949219 1342.140625 C 1660.171875 1350.738281 1674.550781 1351.820312 1687.898438 1352.359375 C 1726.300781 1353.921875 1764.761719 1354.261719 1803.191406 1353.378906 C 1807.960938 1353.269531 1813.128906 1353.011719 1816.800781 1349.949219 C 1819.789062 1347.46875 1821.191406 1343.609375 1822.359375 1339.910156 C 1827.789062 1322.78125 1830.988281 1304.949219 1831.859375 1287 C 1834 1308.789062 1838.078125 1330.460938 1852.261719 1347.140625 C 1868.558594 1366.320312 1895.539062 1371.738281 1920.480469 1375.121094 C 1943.171875 1378.191406 1965.960938 1380.550781 1988.800781 1382.199219 C 1993.730469 1382.550781 1999.160156 1382.730469 2003.050781 1379.691406 C 2005.929688 1377.449219 2007.378906 1373.878906 2008.699219 1370.488281 C 2012.410156 1360.960938 2016.128906 1351.441406 2019.839844 1341.910156 C 2023.671875 1364.078125 2029.25 1388.929688 2048.460938 1400.628906 C 2061.460938 1408.550781 2077.601562 1408.320312 2092.640625 1410.71875 C 2104.871094 1412.671875 2117.179688 1416.5 2129.398438 1414.46875 C 2141.621094 1412.441406 2153.691406 1401.679688 2151.519531 1389.488281 C 2155.378906 1403.378906 2160.238281 1418.628906 2172.671875 1425.941406 C 2178.230469 1429.210938 2184.710938 1430.46875 2191.050781 1431.679688 C 2200.808594 1433.539062 2210.570312 1435.390625 2220.320312 1437.25 C 2231.078125 1439.300781 2242.46875 1441.300781 2252.71875 1437.460938 C 2262.96875 1433.621094 2270.980469 1421.589844 2266.449219 1411.621094 C 2275.351562 1411.730469 2276.378906 1424.371094 2280.089844 1432.460938 C 2285.019531 1443.21875 2297.820312 1447.558594 2309.398438 1450.019531 C 2331.859375 1454.800781 2354.941406 1456.679688 2377.878906 1455.621094 C 2376.398438 1454.71875 2375.738281 1456.96875 2376.558594 1458.5 C 2378.550781 1459.121094 2380.539062 1459.738281 2382.53125 1460.359375 L 2394.921875 1536.21875 L 1617.699219 1491.320312 C 1539.070312 1496.128906 1498.851562 1575.519531 1489.199219 1714.269531 C 1442.859375 1747.050781 1389.148438 1757.191406 1331.28125 1754.519531 C 1333.050781 1560.921875 1325.699219 1372.21875 1357.769531 1230.089844 "/>
<path fill-rule="nonzero" fill="rgb(94.921875%, 82.03125%, 26.660156%)" fill-opacity="1" stroke-width="40" stroke-linecap="butt" stroke-linejoin="miter" stroke="rgb(4.704285%, 1.567078%, 1.567078%)" stroke-opacity="1" stroke-miterlimit="10" d="M 6206.367188 4949.101562 L 6292.734375 3524.6875 C 6270 3140.390625 6579.609375 2890.78125 7085.859375 2720.78125 C 8836.015625 2599.101562 10495.507812 2499.882812 11558.984375 2549.414062 C 11748.398438 2555.78125 12681.914062 2760.898438 12879.296875 3153.203125 C 12872.8125 3834.414062 12871.210938 4466.210938 12864.6875 5147.382812 C 12448.007812 5008.59375 12031.289062 4869.882812 11614.492188 4731.09375 C 11438.710938 4672.5 11262.695312 4613.984375 11084.882812 4562.890625 C 10317.617188 4342.8125 9515.234375 4264.609375 8723.671875 4332.890625 C 8443.710938 4357.109375 8165.390625 4399.296875 7887.304688 4441.601562 C 7259.6875 4536.914062 6220.3125 4969.296875 6220.3125 4969.296875 L 6273.554688 3514.414062 " transform="matrix(0.1, 0, 0, -0.1, 0, 2412)"/>
<path fill-rule="nonzero" fill="rgb(73.631287%, 62.304688%, 14.109802%)" fill-opacity="1" d="M 680.5 1965.078125 L 681.53125 1984.179688 L 719.207031 2081.71875 L 719.722656 2098.230469 L 807.457031 2116.808594 C 896.523438 2136.929688 996.847656 2132.570312 1102.648438 2116.289062 L 1233.21875 1943.921875 L 1249.738281 1917.089844 L 1250.769531 1910.378906 L 1226.511719 1922.761719 L 1079.949219 2102.878906 L 735.71875 2086.359375 "/>
<path fill-rule="nonzero" fill="rgb(100%, 99.609375%, 97.264099%)" fill-opacity="1" d="M 677.917969 1940.308594 L 743.503906 2083.421875 C 840.328125 2106.929688 948.9375 2124.058594 1064.148438 2101.328125 L 1201.21875 1929.46875 C 1007.660156 2003.140625 834.339844 2002.660156 677.917969 1940.308594 "/>
<path fill-rule="nonzero" fill="rgb(3.921509%, 2.352905%, 1.177979%)" fill-opacity="1" d="M 690.304688 1989.089844 C 806.542969 2030.789062 958.925781 2047.589844 1171.03125 1987.191406 L 1199.679688 1958.121094 C 1008.628906 2028.648438 818.035156 2022.121094 681.789062 1972.648438 L 688.832031 1983.828125 L 690.304688 1989.089844 "/>
<path fill-rule="nonzero" fill="rgb(3.921509%, 2.352905%, 1.177979%)" fill-opacity="1" d="M 708.753906 2020.988281 C 812.65625 2060.640625 948.863281 2076.601562 1138.460938 2019.191406 L 1164.070312 1991.539062 C 993.300781 2058.601562 822.925781 2052.390625 701.140625 2005.371094 L 707.4375 2015.988281 L 708.753906 2020.988281 "/>
<path fill-rule="nonzero" fill="rgb(3.921509%, 2.352905%, 1.177979%)" fill-opacity="1" d="M 719.777344 2048.941406 C 811.890625 2091.699219 933.851562 2111.769531 1106.289062 2060.109375 L 1130.238281 2033.261719 C 974.414062 2095.121094 821.402344 2083.769531 713.460938 2033.089844 L 718.761719 2043.898438 L 719.777344 2048.941406 "/>
<path fill-rule="nonzero" fill="rgb(60.742188%, 30.200195%, 2.745056%)" fill-opacity="1" d="M 1509.320312 1708.078125 L 2348.46875 1638.398438 L 2385.628906 1627.570312 L 1503.128906 1680.210938 L 1509.320312 1708.078125 "/>
<path fill-rule="nonzero" fill="rgb(89.451599%, 45.483398%, 0%)" fill-opacity="1" d="M 699.59375 1303.988281 L 1308.050781 1273.019531 L 1311.148438 1334.949219 L 1292.570312 1372.109375 L 763.074219 1393.78125 L 691.855469 1362.820312 L 699.59375 1303.988281 "/>
<path fill-rule="nonzero" fill="rgb(89.451599%, 45.483398%, 0%)" fill-opacity="1" d="M 1401.140625 1272.621094 L 1287.339844 1269.929688 L 1245.351562 1303.53125 L 1246.699219 1498.378906 C 1245.921875 1522.320312 1336.820312 1521.261719 1337.46875 1499.71875 C 1359.671875 1448.050781 1360.171875 1392.570312 1345.601562 1334.441406 L 1314.441406 1314.28125 L 1314.441406 1302.179688 L 1402.488281 1308.898438 L 1401.140625 1272.621094 "/>
<path fill-rule="nonzero" fill="rgb(86.71875%, 85.9375%, 82.8125%)" fill-opacity="1" d="M 626.828125 1833.480469 L 629.925781 1897.730469 C 639.988281 1904.789062 651.871094 1911.328125 662.917969 1916.71875 C 668.863281 1919.621094 674.960938 1922.28125 681.347656 1924 C 687.808594 1925.738281 694.484375 1926.5 701.132812 1927.261719 C 711.734375 1928.460938 722.335938 1929.671875 732.9375 1930.878906 C 730.214844 1920.070312 724.792969 1910.539062 718.613281 1901.261719 C 707.71875 1884.910156 696.621094 1868.339844 681.664062 1855.601562 C 666.703125 1842.859375 646.476562 1833.480469 626.828125 1833.480469 "/>
<path fill-rule="nonzero" fill="rgb(86.71875%, 85.9375%, 82.8125%)" fill-opacity="1" d="M 1094.160156 1926 C 1107.921875 1884.800781 1141.148438 1851.859375 1179.589844 1830.699219 C 1218.019531 1809.53125 1280.179688 1791.671875 1280.179688 1791.671875 L 1279.410156 1886.851562 C 1279.410156 1886.851562 1280.269531 1888.921875 1270.820312 1890.199219 C 1260.71875 1891.570312 1250.871094 1894.339844 1241.070312 1897.109375 C 1207.71875 1906.511719 1174.359375 1915.921875 1141.011719 1925.328125 C 1125.289062 1929.761719 1110.070312 1929.660156 1094.160156 1926 "/>
<path fill-rule="nonzero" fill="rgb(0%, 0.784302%, 0.392151%)" fill-opacity="1" d="M 1364.558594 1090.328125 C 1768.628906 1181.171875 2166.859375 1271.21875 2380.980469 1336.5 L 2384.078125 1347.421875 C 2142.980469 1279.058594 1754.800781 1188.980469 1346.980469 1099.609375 L 1364.558594 1090.328125 "/>
<path fill-rule="nonzero" fill="rgb(0%, 0.784302%, 0.392151%)" fill-opacity="1" d="M 789.394531 1146.558594 C 953.507812 1053.691406 1156.839844 1065.039062 1354.5 1090.328125 L 1354.5 1102.710938 C 1168.339844 1075.601562 961.761719 1067.101562 789.394531 1146.558594 "/>
<path fill-rule="nonzero" fill="rgb(7.446289%, 39.988708%, 61.914062%)" fill-opacity="1" d="M 1609.960938 1200.25 L 1613.058594 1491.320312 L 1625.441406 1491.320312 Z M 1609.960938 1200.25 "/>
<path fill-rule="nonzero" fill="rgb(7.446289%, 39.988708%, 61.914062%)" fill-opacity="1" d="M 1832.910156 1253.910156 L 1854.691406 1502.46875 L 1840.761719 1502.46875 Z M 1832.910156 1253.910156 "/>
<path fill-rule="nonzero" fill="rgb(7.446289%, 39.988708%, 61.914062%)" fill-opacity="1" d="M 2016.109375 1285.921875 L 2027.339844 1515.019531 L 2039.71875 1515.019531 Z M 2016.109375 1285.921875 "/>
<path fill-rule="nonzero" fill="rgb(7.446289%, 39.988708%, 61.914062%)" fill-opacity="1" d="M 2143.578125 1317.921875 L 2159.449219 1522.519531 L 2171.839844 1522.519531 Z M 2143.578125 1317.921875 "/>
<path fill-rule="nonzero" fill="rgb(7.446289%, 39.988708%, 61.914062%)" fill-opacity="1" d="M 2264.859375 1351.570312 L 2280.730469 1529.519531 L 2293.121094 1529.519531 Z M 2264.859375 1351.570312 "/>
<path fill-rule="nonzero" fill="rgb(69.726562%, 34.910583%, 8.616638%)" fill-opacity="1" d="M 1738.449219 1969.730469 L 2161.128906 1883.03125 C 2160.320312 1895.53125 2167.320312 1929.988281 2167.320312 1929.988281 C 2167 1934.96875 2159.039062 1930.679688 2162.378906 1934.390625 L 1735.371094 2044.039062 L 1738.449219 1969.730469 "/>
<path fill-rule="nonzero" fill="rgb(72.851562%, 72.459412%, 72.459412%)" fill-opacity="1" d="M 1713.441406 1977.46875 C 1713.441406 2029.640625 1688.839844 2071.921875 1658.480469 2071.921875 C 1628.128906 2071.921875 1603.519531 2029.640625 1603.519531 1977.46875 C 1603.519531 1925.308594 1628.128906 1883.03125 1658.480469 1883.03125 C 1688.839844 1883.03125 1713.441406 1925.308594 1713.441406 1977.46875 "/>
<path fill-rule="nonzero" fill="rgb(69.726562%, 34.910583%, 8.616638%)" fill-opacity="1" d="M 730.558594 1314.820312 L 722.816406 1351.980469 L 772.363281 1369.011719 L 1187.289062 1362.820312 L 1208.960938 1370.558594 L 758.429688 1393.78125 L 693.402344 1365.921875 L 710.433594 1302.441406 L 730.558594 1314.820312 "/>
<path fill-rule="nonzero" fill="rgb(94.921875%, 94.921875%, 94.921875%)" fill-opacity="1" d="M 1713.441406 1978.398438 C 1713.441406 2020.640625 1697.910156 2054.878906 1678.738281 2054.878906 C 1659.570312 2054.878906 1644.03125 2020.640625 1644.03125 1978.398438 C 1644.03125 1936.160156 1659.570312 1901.910156 1678.738281 1901.910156 C 1697.910156 1901.910156 1713.441406 1936.160156 1713.441406 1978.398438 "/>
<path fill-rule="nonzero" fill="rgb(31.762695%, 31.37207%, 31.37207%)" fill-opacity="1" d="M 1635.230469 1838.75 C 1549.171875 1864.351562 1545.199219 2107.199219 1626.839844 2125.988281 C 1550.550781 2091.5 1554.578125 1862.03125 1639.890625 1841.121094 L 1635.230469 1838.75 "/>
<path fill-rule="nonzero" fill="rgb(0%, 0.784302%, 0.392151%)" fill-opacity="1" d="M 1320.441406 1743.679688 L 1328.160156 2106.75 L 1497.96875 2049.460938 L 1335.519531 2091.648438 L 1330.960938 1756.839844 L 1320.441406 1743.679688 "/>
<path fill-rule="nonzero" fill="rgb(0%, 0%, 0%)" fill-opacity="1" d="M 1493.839844 1737.488281 C 1495.128906 1762.378906 1495.929688 1787.28125 1496.558594 1812.171875 C 1496.921875 1824.621094 1497.101562 1837.070312 1497.359375 1849.519531 L 1497.890625 1886.871094 L 1498.140625 1924.21875 C 1498.128906 1936.671875 1498.21875 1949.128906 1498.109375 1961.578125 C 1498.011719 1986.480469 1497.71875 2011.390625 1496.941406 2036.300781 C 1495.640625 2011.410156 1494.839844 1986.519531 1494.210938 1961.621094 C 1493.851562 1949.171875 1493.679688 1936.71875 1493.410156 1924.269531 L 1492.890625 1886.921875 L 1492.640625 1849.570312 C 1492.648438 1837.121094 1492.570312 1824.671875 1492.671875 1812.210938 C 1492.78125 1787.308594 1493.058594 1762.398438 1493.839844 1737.488281 "/>
<path fill-rule="nonzero" fill="rgb(0%, 0%, 0%)" fill-opacity="1" d="M 1498.488281 1674.011719 L 2387.171875 1629.121094 L 1497.710938 1686.398438 Z M 1498.488281 1674.011719 "/>
<path fill-rule="nonzero" fill="rgb(0.784302%, 0.392151%, 0%)" fill-opacity="1" d="M 1401.71875 1271.46875 L 1283.28125 1265.28125 L 1237.609375 1338.820312 L 1246.898438 1504.480469 L 1245.351562 1344.238281 L 1287.148438 1276.121094 L 1392.429688 1281.539062 L 1399.398438 1283.859375 L 1402.488281 1301.660156 L 1401.71875 1271.46875 "/>
<path fill-rule="nonzero" fill="rgb(4.704285%, 2.745056%, 1.177979%)" fill-opacity="1" d="M 700.367188 1322.558594 L 663.984375 1324.890625 L 615.988281 1365.921875 L 633.019531 1383.71875 L 629.925781 1541.640625 L 645.40625 1382.171875 L 629.925781 1369.011719 L 659.339844 1337.269531 L 666.308594 1334.949219 L 695.722656 1336.5 L 700.367188 1322.558594 "/>
<path fill-rule="nonzero" fill="rgb(4.704285%, 2.745056%, 1.177979%)" fill-opacity="1" d="M 694.949219 1336.5 L 684.113281 1372.109375 L 760.75 1401.519531 L 1019.308594 1389.910156 L 1242.25 1375.980469 L 1242.25 1368.238281 L 763.074219 1389.910156 L 695.722656 1365.140625 L 715.851562 1299.339844 L 725.140625 1298.570312 L 747.589844 1235.089844 L 722.042969 1288.5 L 711.980469 1291.601562 L 694.949219 1336.5 "/>
<path fill-rule="nonzero" fill="rgb(6.665039%, 5.883789%, 5.099487%)" fill-opacity="1" d="M 771.878906 1943.171875 L 782.433594 1952.78125 L 810.855469 1960.601562 C 850.996094 1970.660156 891.804688 1979.351562 945.585938 1961.5 L 986.074219 1954.179688 L 996.546875 1940.558594 C 914.355469 1954.171875 838.292969 1957.078125 771.878906 1943.171875 "/>
<path fill-rule="nonzero" fill="rgb(4.704285%, 1.567078%, 1.567078%)" fill-opacity="1" d="M 669.402344 1937.988281 L 723.59375 2064.941406 L 734.429688 2088.171875 C 842.601562 2118.558594 955.855469 2130.898438 1080.460938 2102.878906 L 1230.640625 1918.640625 L 1193.480469 1927.921875 L 1070.398438 2093.589844 C 965.90625 2117.878906 854.726562 2107.570312 739.847656 2078.101562 L 681.789062 1939.539062 L 669.402344 1937.988281 "/>
<path fill-rule="nonzero" fill="rgb(1.567078%, 2.352905%, 2.745056%)" fill-opacity="1" d="M 855.96875 1725.109375 L 714.304688 1725.109375 L 701.144531 1732.070312 L 722.042969 1732.851562 L 731.769531 1732.621094 L 691.855469 1783.941406 L 709.65625 1782.390625 L 744.257812 1732.328125 L 855.191406 1729.75 L 855.96875 1725.109375 "/>
<path fill-rule="nonzero" fill="rgb(1.567078%, 2.352905%, 2.745056%)" fill-opacity="1" d="M 877.640625 1703.429688 L 1054.921875 1703.429688 L 1068.078125 1713.789062 L 1047.171875 1714.941406 L 1037.449219 1714.601562 L 1077.359375 1790.910156 L 1059.558594 1788.601562 L 1024.960938 1714.171875 L 890.800781 1710.339844 L 877.640625 1703.429688 "/>
<path fill-rule="nonzero" fill="rgb(79.296875%, 94.53125%, 98.826599%)" fill-opacity="1" d="M 663.984375 1574.929688 L 716.625 1400.75 L 744.492188 1417.011719 L 951.183594 1404.621094 L 876.09375 1549.378906 L 937.25 1547.828125 L 1018.53125 1406.171875 L 1075.820312 1399.199219 L 1024.71875 1489.769531 L 1054.140625 1488.230469 L 1106.78125 1399.199219 L 1239.929688 1383.71875 L 1239.160156 1373.660156 L 755.332031 1399.199219 L 709.65625 1378.300781 L 681.015625 1494.421875 L 663.984375 1574.929688 "/>
<path fill-rule="nonzero" fill="rgb(73.631287%, 62.304688%, 14.109802%)" fill-opacity="1" d="M 626.3125 1919.671875 L 645.40625 2076.558594 C 651.195312 2093.171875 669.566406 2107.941406 696.5 2121.460938 C 829.953125 2139.75 981.21875 2145.550781 1148.578125 2140.03125 C 1189.769531 2127.890625 1222.761719 2112.101562 1246.121094 2092.039062 L 1256.960938 1926.378906 L 1224.191406 1929.210938 L 1226.25 1920.441406 L 1281.730469 1902.640625 L 1284.828125 2097.710938 C 1274.609375 2111.21875 1261.429688 2120.761719 1246.640625 2128.160156 C 1227.261719 2139.679688 1199.921875 2147.378906 1170.261719 2153.96875 L 1134.648438 2157.058594 C 989.644531 2153.789062 846.402344 2146.878906 705.015625 2136.160156 C 671.902344 2120.910156 647.289062 2108.371094 637.148438 2087.390625 L 632.503906 2076.039062 C 632.621094 2032.859375 625.796875 1983.148438 626.3125 1919.671875 "/>
<path fill-rule="nonzero" fill="rgb(100%, 100%, 100%)" fill-opacity="1" d="M 1092.070312 1928.699219 L 1109.101562 1892.320312 L 1136.199219 1859.800781 L 1158.648438 1840.449219 L 1256.960938 1811.03125 L 1245.351562 1878.378906 L 1230.640625 1902.378906 L 1128.460938 1931.019531 L 1092.070312 1928.699219 "/>
<path fill-rule="nonzero" fill="rgb(100%, 100%, 100%)" fill-opacity="1" d="M 640.246094 1852.621094 L 641.792969 1905.261719 L 675.855469 1921.339844 L 734.6875 1927.921875 C 712.1875 1889.640625 688.996094 1854.539062 661.148438 1840.921875 L 641.019531 1835.800781 L 640.246094 1852.621094 "/>
<path fill-rule="nonzero" fill="rgb(0.784302%, 0.784302%, 0%)" fill-opacity="1" d="M 2103.851562 1853.609375 C 2103.429688 1826.378906 2103.230469 1799.160156 2102.929688 1771.941406 L 2102.390625 1690.269531 L 2102.148438 1649.441406 L 2102.070312 1608.609375 L 2101.980469 1567.78125 L 2101.960938 1557.570312 L 2101.949219 1552.46875 C 2101.941406 1551.621094 2101.96875 1550.769531 2101.921875 1549.921875 L 2101.75 1547.378906 L 2100.351562 1527.058594 L 2100.210938 1524.929688 L 2102.351562 1524.980469 L 2133.308594 1525.71875 L 2164.28125 1526.558594 L 2166.199219 1526.609375 L 2166.148438 1528.53125 L 2164.050781 1606.320312 L 2162.988281 1645.21875 L 2161.769531 1684.109375 L 2159.300781 1761.898438 C 2158.371094 1787.820312 2157.53125 1813.75 2156.488281 1839.679688 C 2156.730469 1813.730469 2157.179688 1787.789062 2157.539062 1761.851562 L 2158.941406 1684.039062 L 2159.660156 1645.140625 L 2160.53125 1606.230469 L 2162.308594 1528.429688 L 2164.179688 1530.398438 L 2133.210938 1529.691406 L 2102.25 1528.878906 L 2104.238281 1526.800781 L 2105.558594 1547.238281 L 2105.730469 1549.789062 C 2105.769531 1550.640625 2105.738281 1551.488281 2105.738281 1552.339844 L 2105.730469 1557.449219 L 2105.710938 1567.660156 L 2105.628906 1608.511719 L 2105.539062 1649.371094 L 2105.300781 1690.21875 L 2104.761719 1771.921875 C 2104.460938 1799.148438 2104.269531 1826.378906 2103.851562 1853.609375 "/>
<path fill-rule="nonzero" fill="rgb(0%, 0%, 0%)" fill-opacity="1" d="M 2339.179688 1728.199219 L 2339.179688 1842.769531 L 2390.269531 1825.738281 L 2391.820312 1718.910156 L 2339.179688 1728.199219 "/>
<path fill-rule="nonzero" fill="rgb(98.826599%, 98.826599%, 98.826599%)" fill-opacity="1" d="M 2585.328125 979.601562 C 2576.089844 927.28125 2536.058594 887.910156 2488.078125 887.910156 C 2469.058594 887.910156 2451.289062 894.109375 2436.191406 904.839844 C 2427.710938 851.410156 2387.230469 810.921875 2338.570312 810.921875 C 2283.75 810.921875 2239.308594 862.300781 2239.308594 925.691406 C 2239.308594 928.761719 2239.421875 931.808594 2239.621094 934.820312 C 2226.289062 927.121094 2211.25 922.78125 2195.328125 922.78125 C 2140.519531 922.78125 2096.078125 974.171875 2096.078125 1037.550781 C 2096.078125 1041.320312 2096.25 1045.039062 2096.550781 1048.71875 L 2035.570312 1055.621094 L 1839.539062 1075.921875 L 2185.621094 1069.511719 L 2713.890625 1069.511719 C 2710.910156 989.519531 2665.140625 935.980469 2585.328125 979.601562 "/>
<path fill-rule="nonzero" fill="rgb(98.826599%, 98.826599%, 98.826599%)" fill-opacity="1" d="M 1650.789062 766.859375 L 1447.660156 744.75 C 1447.671875 744.210938 1447.691406 743.679688 1447.691406 743.140625 C 1447.691406 692.710938 1406.808594 651.839844 1356.390625 651.839844 C 1341.75 651.839844 1327.921875 655.289062 1315.648438 661.421875 C 1315.839844 659.019531 1315.941406 656.601562 1315.941406 654.148438 C 1315.941406 603.730469 1275.058594 562.851562 1224.640625 562.851562 C 1179.878906 562.851562 1142.648438 595.058594 1134.851562 637.558594 C 1120.960938 629.03125 1104.609375 624.101562 1087.109375 624.101562 C 1042.980469 624.101562 1006.160156 655.421875 997.660156 697.039062 C 924.253906 662.339844 882.15625 704.929688 879.410156 768.558594 L 1444.101562 768.558594 C 1444.128906 768.460938 1444.148438 768.351562 1444.179688 768.25 L 1650.789062 766.859375 "/>
<path fill-rule="nonzero" fill="rgb(98.826599%, 98.826599%, 98.826599%)" fill-opacity="1" d="M 2529.289062 536.230469 C 2508.679688 536.230469 2490.320312 545.070312 2478.339844 558.859375 C 2462.679688 545.210938 2442.359375 536.789062 2420.078125 536.28125 C 2420.269531 533.460938 2420.378906 530.621094 2420.378906 527.761719 C 2420.378906 460.261719 2365.660156 405.539062 2298.160156 405.539062 C 2235.03125 405.539062 2183.078125 453.410156 2176.621094 514.828125 C 2164.070312 508.410156 2149.871094 504.769531 2134.800781 504.769531 C 2089.238281 504.769531 2051.441406 537.898438 2044.128906 581.378906 L 1832.28125 619.71875 L 2589.738281 619.71875 C 2592.878906 612.628906 2594.628906 604.871094 2594.628906 596.730469 C 2594.628906 563.320312 2565.371094 536.230469 2529.289062 536.230469 "/>
</svg>
